<svg xmlns="http://www.w3.org/2000/svg">
  <defs>
      <linearGradient id="grd1" x1="0" x2="23%" y1="0" y2="100%" >
          <stop stop-color="#ff2f96" offset="0%"/>
          <stop stop-color="#ff8f5a" offset="99%"/>
      </linearGradient>
  </defs>
  
  <path fill="url(#grd1)" class="cls-1" d="M394.819,32.771C501.505-8.891,602.187-9.019,686.362,22.255c84.392,31.02,152.279,93.443,198.39,171.019,44.247,78.347,44.2,162.5,8.063,230.576C856.178,492.94,795.2,545.029,712.1,582.2c-44.008,18.718-90.266,31.542-149.072,39.413-58.031,7.756-128.611,10.561-203.39,6.56-148.4-7.7-314.715-43.831-349.788-125.336-19.876-40.472-7.4-86.865,17.312-133.552,25.117-46.756,62.47-93.806,101.688-137.165C168.477,188.7,209.966,148.959,252.68,115.26c43.12-33.768,87.463-61.5,142.139-82.489h0Z"/>
</svg>


