<?xml version="1.0" standalone="no"?>
<!DOCTYPE svg PUBLIC "-//W3C//DTD SVG 20010904//EN"
 "http://www.w3.org/TR/2001/REC-SVG-20010904/DTD/svg10.dtd">
<svg version="1.0" xmlns="http://www.w3.org/2000/svg"
 width="2307.000000pt" height="2307.000000pt" viewBox="0 0 2307.000000 2307.000000"
 preserveAspectRatio="xMidYMid meet">
<metadata>
Created by potrace 1.11, written by Peter Selinger 2001-2013
</metadata>
<g transform="translate(0.000000,2307.000000) scale(0.100000,-0.100000)"
fill="#000000" stroke="none">
<path d="M10139 22924 c-123 -75 -240 -146 -259 -158 -19 -13 -91 -56 -159
-97 -68 -41 -138 -83 -156 -94 -18 -11 -85 -51 -149 -90 -64 -38 -135 -82
-159 -97 -23 -15 -53 -33 -67 -41 -32 -17 -611 -368 -748 -453 -57 -35 -106
-64 -109 -64 -3 0 -19 -10 -36 -22 -18 -13 -41 -28 -52 -34 -11 -6 -157 -94
-325 -196 -447 -271 -1210 -734 -1560 -946 -168 -102 -357 -216 -420 -255 -63
-38 -127 -77 -142 -86 -179 -107 -289 -174 -483 -292 -274 -167 -257 -157
-638 -387 -166 -100 -401 -243 -522 -317 -256 -157 -326 -198 -340 -204 -5 -2
-28 -16 -50 -31 -22 -14 -155 -96 -295 -180 -140 -85 -337 -204 -437 -265
-100 -60 -336 -204 -525 -318 -189 -114 -431 -261 -538 -327 -107 -65 -301
-182 -432 -261 -156 -94 -234 -147 -231 -156 3 -7 10 -10 16 -6 6 3 7 1 3 -5
-6 -10 14 -55 159 -357 37 -77 91 -189 120 -250 29 -60 83 -173 120 -250 37
-77 93 -194 125 -260 32 -66 89 -185 127 -265 149 -308 183 -379 243 -505 34
-71 92 -191 127 -265 36 -74 87 -180 113 -235 26 -55 85 -176 130 -270 45 -93
99 -206 120 -250 21 -44 75 -156 120 -250 77 -159 105 -216 244 -507 29 -62
84 -176 121 -253 84 -173 181 -375 250 -520 29 -60 87 -182 130 -270 43 -88
99 -205 125 -260 74 -157 151 -315 240 -500 45 -93 101 -210 125 -260 56 -118
134 -281 234 -487 44 -92 102 -213 130 -270 27 -57 79 -166 117 -243 37 -77
68 -142 69 -145 1 -3 27 -59 59 -125 84 -172 192 -396 361 -750 29 -60 86
-180 128 -265 41 -85 102 -212 136 -282 l61 -128 -44 -112 c-24 -62 -119 -306
-211 -543 -91 -236 -172 -443 -179 -460 -8 -16 -35 -86 -61 -155 -63 -167
-185 -480 -196 -505 -5 -11 -36 -92 -70 -180 -34 -88 -79 -203 -99 -255 -20
-52 -72 -185 -114 -295 -42 -110 -83 -213 -90 -230 -7 -16 -19 -46 -26 -65 -6
-19 -16 -44 -21 -55 -16 -39 -281 -721 -300 -775 -11 -30 -24 -62 -29 -71 -7
-13 6 -24 61 -58 38 -22 74 -41 79 -41 6 0 10 -4 10 -10 0 -5 5 -10 10 -10 6
0 27 -11 48 -24 20 -13 116 -69 212 -125 96 -56 182 -106 190 -111 8 -5 51
-30 95 -56 122 -71 298 -174 425 -249 63 -38 129 -76 147 -86 17 -10 50 -29
72 -43 22 -15 43 -26 46 -26 3 0 22 -11 43 -24 35 -23 288 -172 362 -214 19
-11 148 -86 285 -167 138 -81 266 -156 285 -167 41 -24 168 -98 191 -113 9 -5
32 -18 50 -29 32 -17 100 -57 464 -272 83 -49 164 -96 182 -106 17 -9 78 -45
135 -79 56 -34 123 -73 148 -87 25 -14 89 -51 142 -84 54 -32 102 -58 108 -58
5 0 10 -3 10 -7 0 -5 10 -13 23 -19 44 -21 122 -67 138 -80 8 -8 18 -14 21
-14 5 0 290 -166 363 -211 17 -10 37 -22 45 -26 8 -4 71 -40 140 -81 69 -41
134 -80 145 -86 21 -12 310 -181 335 -197 49 -30 222 -129 226 -129 3 0 17 -9
32 -19 20 -14 602 -357 817 -481 44 -25 167 -97 460 -269 143 -84 325 -191
405 -238 173 -101 155 -90 258 -153 46 -27 86 -50 88 -50 2 0 37 -20 77 -44
39 -23 232 -136 427 -251 195 -114 402 -235 460 -270 58 -34 125 -74 150 -87
25 -14 211 -123 413 -242 202 -119 372 -216 378 -216 6 0 8 7 5 16 -3 8 -2 13
3 10 4 -3 95 135 200 307 106 172 196 319 201 327 135 218 177 288 183 300 4
8 20 34 35 57 24 38 101 162 143 232 9 14 117 190 241 391 505 822 637 1037
710 1158 42 70 80 132 85 137 5 6 12 17 16 25 4 8 15 27 25 42 9 15 45 73 79
130 35 57 133 216 218 353 85 138 160 259 165 270 6 11 18 32 28 47 9 15 41
67 71 115 30 48 81 132 115 185 34 54 66 106 71 115 6 10 38 63 71 118 231
375 439 714 453 737 9 15 41 66 71 115 30 48 57 92 59 98 2 5 18 33 36 60 18
28 184 298 370 600 185 303 352 574 371 602 19 29 34 55 34 58 0 3 20 36 44
73 24 37 147 236 273 442 126 206 333 543 459 747 126 205 234 381 239 391 11
19 164 269 225 367 64 103 161 260 335 545 92 151 178 291 190 310 13 19 103
166 200 325 97 160 187 306 200 325 25 39 258 418 285 465 31 54 232 379 249
405 10 14 21 32 24 40 4 8 33 56 65 107 31 50 76 124 100 163 l43 71 18 -23
c10 -13 152 -196 315 -408 163 -212 307 -398 320 -415 13 -16 189 -244 390
-505 201 -261 384 -497 405 -525 22 -27 73 -94 114 -147 41 -54 76 -96 78 -94
2 3 3 46 2 98 -1 51 -4 300 -7 553 -4 253 -9 595 -11 760 -3 165 -7 487 -10
715 -6 419 -10 724 -20 1435 -3 215 -8 557 -10 760 -3 204 -7 534 -10 735 -3
201 -8 511 -10 690 -2 179 -7 507 -10 730 -3 223 -8 560 -10 750 -3 190 -7
500 -10 690 -2 190 -7 525 -10 745 -3 220 -7 537 -10 705 -2 168 -7 503 -11
745 -3 242 -7 441 -8 443 -2 1 -41 4 -87 7 -46 2 -122 7 -169 10 -47 2 -130 7
-185 10 -113 6 -241 13 -365 20 -47 3 -128 7 -180 10 -88 4 -162 8 -395 21
-141 7 -251 13 -365 19 -58 3 -141 7 -185 10 -135 8 -276 16 -355 20 -41 2
-122 6 -180 10 -58 3 -150 7 -205 10 -55 3 -131 7 -170 10 -38 2 -124 7 -190
10 -66 3 -147 7 -180 10 -33 2 -112 7 -175 10 -63 3 -153 8 -200 10 -47 2
-123 7 -170 10 -47 3 -132 7 -190 10 -107 5 -250 13 -375 20 -159 9 -285 16
-365 20 -47 2 -130 7 -185 10 -103 6 -169 10 -360 20 -181 9 -275 14 -370 20
-144 8 -252 14 -375 20 -63 3 -146 7 -185 10 -63 5 -134 9 -360 20 -173 9
-389 20 -560 30 -205 12 -265 15 -370 20 -60 3 -141 7 -180 10 -38 2 -122 7
-185 10 -63 3 -146 8 -185 10 -38 2 -124 7 -190 10 -66 3 -145 8 -175 10 -30
2 -116 7 -190 10 -74 4 -160 8 -190 10 -30 2 -107 7 -170 10 -91 5 -118 10
-128 23 -25 33 -68 88 -157 197 -49 61 -103 128 -120 149 -26 34 -199 247
-243 301 -10 11 -80 99 -157 195 -77 96 -144 180 -150 186 -5 7 -24 29 -41 50
-42 53 -446 555 -461 574 -7 8 -38 47 -70 86 -32 39 -71 88 -88 109 -16 21
-35 43 -40 49 -6 6 -73 90 -150 186 -76 96 -144 180 -150 186 -13 15 -27 32
-95 119 -30 39 -57 72 -60 75 -3 3 -50 60 -104 128 -55 67 -102 125 -106 127
-4 2 -108 -57 -231 -131z"/>
</g>
</svg>
