<svg xmlns="http://www.w3.org/2000/svg">
  <defs>
      <linearGradient id="grd1" x1="0" x2="23%" y1="0" y2="100%" >
          <stop stop-color="#ff2f96" offset="0%"/>
          <stop stop-color="#ff8f5a" offset="99%"/>
      </linearGradient>
  </defs>
  
  <path fill="url(#grd1)" class="cls-1" d="M201.92,21.253C256.483-4.54,307.974-4.62,351.023,14.742c43.16,19.2,77.879,57.851,101.462,105.879,22.629,48.505,22.6,100.605,4.124,142.751-18.738,42.774-49.924,75.022-92.421,98.037-22.507,11.589-46.165,19.528-76.24,24.4-29.678,4.8-65.775,6.538-104.018,4.061-75.9-4.765-160.953-27.136-178.891-77.6-10.165-25.056-3.784-53.778,8.854-82.683,12.846-28.946,31.949-58.075,52.006-84.919,20.265-26.886,41.483-51.487,63.328-72.351,22.052-20.906,44.731-38.074,72.693-51.069h0Z" transform="translate(0 -0.969)"/>
</svg>
