<svg xmlns="http://www.w3.org/2000/svg">
  <defs>
      <linearGradient id="grd1" x1="0" x2="23%" y1="0" y2="100%" >
          <stop stop-color="#ff2f96" offset="0%"/>
          <stop stop-color="#ff8f5a" offset="99%"/>
      </linearGradient>
  </defs>
  
    <path class="cls-1" d="M1501.52,178.407c106.74-50.456,207.47-50.611,291.69-12.736,84.44,37.567,152.36,113.165,198.49,207.114,44.27,94.884,44.23,196.8,8.07,279.242-36.66,83.673-97.67,146.755-180.8,191.777-44.03,22.669-90.32,38.2-149.15,47.731-58.06,9.394-128.68,12.79-203.5,7.944-148.47-9.321-314.87-53.081-349.96-151.789-19.89-49.013-7.41-105.2,17.32-161.74,25.13-56.624,62.5-113.6,101.74-166.115,39.64-52.593,81.15-100.717,123.89-141.529,43.14-40.9,87.51-74.479,142.21-99.9h0Z" transform="translate(-1106.5 -138.719)" fill="url(#grd1)"/>
</svg>
